<svg xmlns="http://www.w3.org/2000/svg" width="94.344" height="94.97" viewBox="0 0 94.344 94.97">
  <defs>
    <style>
      .cls-1 {
        fill: #fff;
        fill-rule: evenodd;
      }
    </style>
  </defs>
  <path class="cls-1" d="M302.782,2335.44a39.445,39.445,0,0,1,55.6,0,39,39,0,0,1,3.251,51.66l6.279,6.24a2.727,2.727,0,0,1,2.846.53l14.146,14.56a3.031,3.031,0,0,1-.367,4.25l-5.3,5.13c-1.28,1.27-3.189,1.61-4.268.54l-14.631-14.1a2.7,2.7,0,0,1-.53-2.84l-6.446-6.41a39.452,39.452,0,0,1-50.573-4.22A39,39,0,0,1,302.782,2335.44Zm8.108,47.27a27.948,27.948,0,0,0,39.382,0,27.628,27.628,0,0,0,0-39.2,27.948,27.948,0,0,0-39.382,0A27.628,27.628,0,0,0,310.89,2382.71Zm36.485-36.32a2.452,2.452,0,0,1-3.476,3.46h0a18.923,18.923,0,0,0-26.641,0,2.466,2.466,0,0,1-3.475,0,2.44,2.44,0,0,1,0-3.46A23.83,23.83,0,0,1,347.375,2346.39Z" transform="translate(-291.281 -2324)"/>
</svg>
